<svg width="50" height="50" fill="none" xmlns="http://www.w3.org/2000/svg"><path d="M45 23.907h5v6.523h-5c-3.45 0-6.85-1.141-10-3.261-6.25 4.24-13.75 4.24-20 0-3.15 2.12-6.575 3.261-10 3.261H0v-6.523h5c3.475 0 6.95-1.533 10-4.337 6.1 5.577 13.9 5.577 20 0 3.05 2.804 6.525 4.337 10 4.337zm0-19.57h5v6.524h-5c-3.45 0-6.85-1.142-10-3.262-6.25 4.24-13.75 4.24-20 0-3.15 2.12-6.575 3.262-10 3.262H0V4.338h5c3.475 0 6.95-1.533 10-4.338 6.1 5.577 13.9 5.577 20 0 3.05 2.805 6.525 4.338 10 4.338zm0 39.14h5V50h-5c-3.45 0-6.85-1.142-10-3.262-6.25 4.24-13.75 4.24-20 0C11.85 48.858 8.425 50 5 50H0v-6.523h5c3.475 0 6.95-1.533 10-4.338 6.1 5.577 13.9 5.577 20 0 3.05 2.805 6.525 4.338 10 4.338z" fill="#031F46"/></svg>