<svg width="60" height="60" fill="none" xmlns="http://www.w3.org/2000/svg"><path d="M30 55c9.647 0 17.5-7.852 17.5-17.5S39.647 20 30 20c-9.65 0-17.5 7.852-17.5 17.5S20.35 55 30 55zm0-30c6.892 0 12.5 5.608 12.5 12.5S36.892 50 30 50c-6.893 0-12.5-5.608-12.5-12.5S23.107 25 30 25zM27.5 5h-10v13.795a22.393 22.393 0 0110-3.648V5zm15 0h-10v10.148a22.393 22.393 0 0110 3.647V5z" fill="#031F46"/><path d="M25.048 39.528l-1.17 6.815L30 43.124l6.123 3.218-1.17-6.816 4.955-4.83-6.845-.995L30 27.5l-3.062 6.203-6.845.994 4.955 4.83z" fill="#031F46"/></svg>