<svg width="60" height="60" fill="none" xmlns="http://www.w3.org/2000/svg"><path fill-rule="evenodd" clip-rule="evenodd" d="M30 56.25a26.25 26.25 0 100-52.5 26.25 26.25 0 000 52.5zM30 60a30 30 0 100-60 30 30 0 000 60z" fill="#031F46" fill-opacity=".5"/><path fill-rule="evenodd" clip-rule="evenodd" d="M17.423 31.327a1.877 1.877 0 002.655 0L30 21.401l9.923 9.926a1.877 1.877 0 102.655-2.655l-11.25-11.25a1.875 1.875 0 00-2.655 0l-11.25 11.25a1.877 1.877 0 000 2.655z" fill="#031F46" fill-opacity=".5"/><path fill-rule="evenodd" clip-rule="evenodd" d="M29.875 43.167a1.875 1.875 0 001.875-1.875v-18.75a1.875 1.875 0 00-3.75 0v18.75a1.875 1.875 0 001.875 1.875z" fill="#031F46" fill-opacity=".5"/></svg>