<svg width="25" height="25" fill="none" xmlns="http://www.w3.org/2000/svg"><path d="M4.474 25c-1.057 0-1.996-.438-2.817-1.311C.79 22.765.355 21.643.355 20.324c0-1.319.434-2.44 1.302-3.364L15.27 1.587C15.964.831 16.765.344 17.673.125c.907-.218 1.827-.16 2.758.177.931.336 1.791.915 2.58 1.739.253.285.486.6.699.945.213.344.386.705.52 1.083a7.537 7.537 0 01.414 2.457c-.03 1.781-.599 3.268-1.704 4.461L12.642 22.63a.697.697 0 01-.52.265.683.683 0 01-.534-.214.815.815 0 01-.236-.567.841.841 0 01.201-.593L21.851 9.878c.837-.907 1.263-2.033 1.279-3.377.015-1.344-.387-2.444-1.208-3.301a5.277 5.277 0 00-1.68-1.26 3.469 3.469 0 00-1.99-.277c-.71.1-1.34.445-1.893 1.033L2.746 18.069c-.584.622-.876 1.37-.876 2.243 0 .873.292 1.621.876 2.243.269.285.56.5.876.642.316.143.647.198.994.164.695-.033 1.342-.378 1.942-1.033L17.377 10.08a3.506 3.506 0 00.45-.592c.079-.126.142-.26.19-.404.046-.142.078-.285.094-.428a.882.882 0 00-.071-.441 1.436 1.436 0 00-.284-.428c-.3-.336-.592-.488-.876-.454-.3.034-.64.244-1.018.63l-8.144 9.224a.793.793 0 01-.332.214.686.686 0 01-.39.013.693.693 0 01-.344-.202.738.738 0 01-.236-.555.87.87 0 01.213-.58l8.144-9.248c.647-.672 1.302-1.042 1.965-1.109.757-.067 1.452.235 2.083.907.6.622.864 1.353.793 2.193-.07.84-.454 1.63-1.148 2.369L7.646 23.462c-.883.94-1.87 1.445-2.959 1.512a.517.517 0 00-.106.013.517.517 0 01-.107.012z" fill="#031F46"/></svg>