<svg width="28" height="28" fill="none" xmlns="http://www.w3.org/2000/svg"><path d="M14 7.19A6.8 6.8 0 007.19 14 6.8 6.8 0 0014 20.81 6.8 6.8 0 0020.81 14 6.8 6.8 0 0014 7.19zm0 11.236A4.435 4.435 0 019.574 14 4.435 4.435 0 0114 9.574 4.435 4.435 0 0118.426 14 4.435 4.435 0 0114 18.426zm7.089-13.102c-.88 0-1.59.71-1.59 1.59 0 .88.71 1.59 1.59 1.59.88 0 1.59-.706 1.59-1.59a1.588 1.588 0 00-1.59-1.59zM27.275 14c0-1.833.016-3.649-.087-5.478-.103-2.125-.587-4.011-2.141-5.565-1.558-1.558-3.44-2.039-5.565-2.142C17.649.712 15.832.73 14.003.73c-1.832 0-3.649-.017-5.478.086C6.4.918 4.514 1.403 2.96 2.957 1.403 4.514.921 6.397.818 8.522.715 10.354.732 12.17.732 14c0 1.83-.017 3.65.086 5.479.103 2.125.588 4.01 2.142 5.564 1.557 1.558 3.44 2.04 5.565 2.142 1.833.103 3.649.086 5.478.086 1.833 0 3.65.017 5.479-.086 2.125-.103 4.01-.588 5.565-2.142 1.557-1.557 2.038-3.44 2.141-5.564.107-1.83.087-3.646.087-5.479zm-2.922 7.83a4.218 4.218 0 01-1.003 1.52c-.468.468-.916.76-1.52 1.003-1.747.694-5.894.538-7.83.538s-6.086.156-7.833-.535a4.22 4.22 0 01-1.52-1.003 4.248 4.248 0 01-1.003-1.52c-.69-1.75-.535-5.897-.535-7.833s-.156-6.086.535-7.833a4.22 4.22 0 011.003-1.52c.468-.465.916-.76 1.52-1.003 1.747-.69 5.897-.535 7.833-.535s6.086-.156 7.833.535a4.219 4.219 0 011.52 1.003c.468.468.76.916 1.003 1.52.69 1.747.535 5.897.535 7.833s.156 6.083-.538 7.83z" fill="#031F46"/></svg>