<svg width="77" height="62" fill="none" xmlns="http://www.w3.org/2000/svg"><g clip-path="url(#clip0)" fill="#76DFFF"><path d="M70.862 58c.302 0 .592-.115.805-.319.213-.204.333-.481.333-.77V43.208a.45.45 0 00-.434-.434c-2.981-.145-5.27-1.76-5.27-3.36 0-1.257.485-2.144.953-2.708.253-.305-.007-.752-.41-.702-6.015.74-4.536 6.78-11.827 6.78-3.19 0-5.703-1.694-5.703-3.37 0-1.257.484-2.144.953-2.708.252-.305-.008-.752-.41-.702-6.015.74-4.537 6.78-11.827 6.78-3.19 0-5.703-1.694-5.703-3.37 0-1.257.483-2.144.952-2.708.253-.305-.007-.752-.41-.702-6.015.74-4.537 6.78-11.827 6.78-3.19 0-5.703-1.694-5.703-3.37 0-1.257.484-2.144.952-2.708.253-.305-.007-.752-.41-.702-6.015.74-4.536 6.78-11.827 6.78L4 56.742C3.99 57.434 4.572 58 5.295 58h65.567z"/><path d="M4.862 58c.302 0 .591-.115.805-.319.213-.204.333-.481.333-.77V43.208a.45.45 0 00-.434-.434c-2.981-.145-5.27-1.76-5.27-3.36 0-1.257.485-2.144.953-2.708.253-.305-.007-.752-.41-.702-6.015.74-4.536 6.78-11.827 6.78-3.19 0-5.703-1.694-5.703-3.37 0-1.257.484-2.144.953-2.708.252-.305-.008-.752-.41-.702-6.015.74-4.537 6.78-11.827 6.78-3.19 0-5.703-1.694-5.703-3.37 0-1.257.483-2.144.952-2.708.253-.305-.007-.752-.41-.702-6.015.74-4.537 6.78-11.827 6.78-3.19 0-5.703-1.694-5.703-3.37 0-1.257.484-2.144.952-2.708.253-.305-.007-.752-.41-.702-6.015.74-4.536 6.78-11.827 6.78L-62 56.742c-.01.692.572 1.258 1.295 1.258H4.862z"/></g><rect x="2.5" y="2.5" width="72" height="57" rx="2.5" stroke="#031F46" stroke-width="5"/><defs><clipPath id="clip0"><path fill="#fff" transform="translate(3 4.026)" d="M0 0h70v56.364H0z"/></clipPath></defs></svg>