<svg width="45" height="45" fill="none" xmlns="http://www.w3.org/2000/svg"><path d="M6.876 1.716v-.169l-.853.853-2.729 2.725h0C1.226 7.197.298 10.311 1.326 13.233h0A49.634 49.634 0 0013.1 31.901a49.633 49.633 0 0018.67 11.774h0c2.922 1.027 6.036.1 8.105-1.97l2.728-2.727L6.876 1.716zm0 0a5.101 5.101 0 016.78 1.164l4.727 6.08s0 0 0 0a5.09 5.09 0 01.923 4.366L17.864 19.1h0a1.29 1.29 0 00.338 1.224l6.48 6.474a1.29 1.29 0 001.224.339h0l5.77-1.443h.001a5.102 5.102 0 014.368.923L6.876 1.716zM4.924 11.967h0c-.489-1.382-.088-2.99 1.066-4.143l2.728-2.728a1.289 1.289 0 011.927.12l4.733 6.082a1.287 1.287 0 01.233 1.102s0 0 0 0l-1.443 5.771s0 0 0 0a5.101 5.101 0 001.34 4.846s0 0 0 0l6.475 6.477h0a5.102 5.102 0 004.846 1.34s0 0 0 0l5.77-1.442a1.288 1.288 0 011.103.233l6.08 4.73h0a1.288 1.288 0 01.122 1.928l-2.728 2.727c-1.153 1.153-2.76 1.553-4.143 1.066a45.825 45.825 0 01-17.238-10.87h-.001a45.823 45.823 0 01-10.87-17.239zm37.202 19.377l-6.08-4.727 6.557 12.36c2.17-2.167 1.945-5.75-.477-7.633 0 0 0 0 0 0z" fill="#031F46" stroke="#031F46"/></svg>