<svg width="32" height="28" fill="none" xmlns="http://www.w3.org/2000/svg"><path d="M30.841 1.3a2.954 2.954 0 00-1.4-.603 3.017 3.017 0 00-1.528.169L2.659 10.587c-.54.212-1 .576-1.318 1.042a2.651 2.651 0 00-.464 1.572c.016.556.209 1.095.553 1.544.345.45.825.789 1.376.973l5.108 1.694 2.847 8.979c.039.12.095.234.167.338.011.016.027.027.038.045.083.11.184.207.298.289a1.426 1.426 0 00.535.25h.019l.008.005c.094.018.19.027.286.027l.025-.004c.145-.003.288-.026.425-.07.032-.01.059-.027.09-.04.102-.04.199-.092.289-.154.07-.058.142-.115.214-.173l3.807-4.008 5.68 4.195c.5.371 1.114.573 1.748.574a2.983 2.983 0 001.823-.62c.515-.399.87-.955 1.007-1.575l4.598-21.522a2.608 2.608 0 00-.104-1.452A2.73 2.73 0 0030.84 1.3zM12.67 17.84a1.318 1.318 0 00-.383.68l-.437 2.02-1.105-3.484 5.728-2.845-3.803 3.628zm11.699 7.126l-6.712-4.958a1.46 1.46 0 00-1.906.161l-1.22 1.284.43-1.998 9.981-9.518a1.3 1.3 0 00.137-1.742 1.415 1.415 0 00-.815-.514 1.47 1.47 0 00-.969.115L8.971 14.907l-5.25-1.831 25.336-9.663-4.688 21.553z" fill="#031F46"/></svg>